<svg id="Layer_1" data-name="Layer 1" xmlns="http://www.w3.org/2000/svg" viewBox="0 0 50.75 54.38"><title>Prototype</title><path d="M36.75,22.69a38.61,38.61,0,0,0-6.75.56v2a37.28,37.28,0,0,1,6.75-.59c7,0,11,1.64,11.9,2.5-.85.86-4.85,2.5-11.9,2.5a36.37,36.37,0,0,1-6.75-.6V49.88a3.65,3.65,0,0,1-.59,1.95,38.5,38.5,0,0,0,7.34.67c7.73,0,14-2,14-4.5V27.19C50.75,24.7,44.48,22.69,36.75,22.69Z" style="fill:#fff"/><path d="M14,0C6.27,0,0,2,0,4.5V49.88c0,2.48,6.27,4.5,14,4.5,6.18,0,11.41-1.29,13.27-3.08A2,2,0,0,0,28,49.88V4.5C28,2,21.73,0,14,0Zm0,2c7,0,11,1.64,11.9,2.5l-.16.13a.08.08,0,0,1,0,0l-.28.19-.09,0-.27.15-.16.08-.28.13-.2.09-.32.13-.25.09-.34.12-.29.1-.39.12L22.5,6l-.42.11-.37.09-.47.1-.4.08-.52.1-.42.07-.57.09-.46.06-.63.07-.47,0-.7.06-.48,0-.83,0-.43,0L14,7,12.67,7l-.43,0-.83,0-.48,0-.7-.06-.47,0-.63-.07-.46-.06L8.1,6.56l-.42-.07-.52-.1-.4-.08-.47-.1-.36-.09L5.5,6l-.33-.09L4.78,5.8l-.29-.1-.34-.12L3.9,5.49l-.32-.13-.2-.09L3.1,5.14l-.16-.08-.27-.15-.09,0L2.3,4.67l0,0L2.1,4.5C3,3.64,7,2,14,2Z" style="fill:#fff"/></svg>